<?xml version="1.0" standalone="no"?><!DOCTYPE svg PUBLIC "-//W3C//DTD SVG 1.1//EN" "http://www.w3.org/Graphics/SVG/1.1/DTD/svg11.dtd"><svg t="1679036915198" class="icon" viewBox="0 0 1073 1024" version="1.1" xmlns="http://www.w3.org/2000/svg" p-id="8346" width="25.1484375" height="24" xmlns:xlink="http://www.w3.org/1999/xlink"><path d="M1034.848211 400.316777m-38.235498 0a38.235498 38.235498 0 1 0 76.470997 0 38.235498 38.235498 0 1 0-76.470997 0Z" fill="#8BC17D" p-id="8347"></path><path d="M267.11497 20.273706m-20.273706 0a20.273706 20.273706 0 1 0 40.547413 0 20.273706 20.273706 0 1 0-40.547413 0Z" fill="#8BC17D" p-id="8348"></path><path d="M267.11497 756.88503m-267.11497 0a267.11497 267.11497 0 1 0 534.229941 0 267.11497 267.11497 0 1 0-534.229941 0Z" fill="#8BC17D" p-id="8349"></path><path d="M833.356026 962.645363H648.225078a25.253213 25.253213 0 0 1 0-50.506426h185.130948a75.759639 75.759639 0 0 0 75.759639-75.759639v-184.953108a25.253213 25.253213 0 1 1 50.506426 0v184.953108a126.443904 126.443904 0 0 1-126.266065 126.266065z m-454.379993 0H193.845085a126.266065 126.266065 0 0 1-126.088225-126.266065v-184.953108a25.253213 25.253213 0 0 1 50.506426 0v184.953108a75.759639 75.759639 0 0 0 75.581799 75.759639h185.130948a25.253213 25.253213 0 0 1 0 50.506426z m555.392845-555.215005a25.253213 25.253213 0 0 1-25.253213-25.253213V197.046197a75.759639 75.759639 0 0 0-75.759639-75.759639H648.225078a25.253213 25.253213 0 0 1 0-50.506426h185.130948a126.443904 126.443904 0 0 1 126.266065 126.266065v185.130948a25.431052 25.431052 0 0 1-25.253213 25.253213z m-841.358805 0a25.253213 25.253213 0 0 1-25.253213-25.253213V197.046197a126.266065 126.266065 0 0 1 126.088225-126.266065h185.130948a25.253213 25.253213 0 0 1 0 50.506426H193.845085a75.759639 75.759639 0 0 0-75.581799 75.759639v185.130948a25.431052 25.431052 0 0 1-25.253213 25.253213zM278.141021 777.514415h-3.023272a25.075373 25.075373 0 0 1-22.052101-28.098646c11.026051-95.321987 75.937478-173.03786 163.790205-206.471691a159.877735 159.877735 0 1 1 193.667245 0c87.674887 33.433831 152.764154 111.149705 163.790205 206.471691a25.253213 25.253213 0 0 1-50.150747 5.868705c-11.915248-102.435568-102.435568-179.617923-210.562-179.617923s-198.646752 77.182355-210.384161 179.617923a25.253213 25.253213 0 0 1-25.075374 22.229941z m235.459535-471.096909a109.371309 109.371309 0 1 0 109.371309 109.37131 109.549149 109.549149 0 0 0-109.371309-109.37131z" fill="#535453" p-id="8350"></path></svg>