<?xml version="1.0" standalone="no"?><!DOCTYPE svg PUBLIC "-//W3C//DTD SVG 1.1//EN" "http://www.w3.org/Graphics/SVG/1.1/DTD/svg11.dtd"><svg t="1679037922047" class="icon" viewBox="0 0 1024 1024" version="1.1" xmlns="http://www.w3.org/2000/svg" p-id="17429" xmlns:xlink="http://www.w3.org/1999/xlink" width="24" height="24"><path d="M821.76 408.064c-37.888-47.616-85.504-85.504-142.848-119.296 23.552-24.064 37.888-52.224 37.888-80.896 0-18.944-4.608-37.888-18.944-57.344-50.176-63.488-138.24-80.896-190.464-80.896-52.224 0-104.96 14.336-142.848 37.888-18.944 9.728-37.888 23.552-47.616 43.008-14.336 18.944-18.944 37.888-18.944 57.344 0 28.672 14.336 57.344 37.888 80.896L297.984 312.32c-60.416 31.744-110.08 97.792-133.12 145.408 0 0.512-0.512 0.512-0.512 1.024-28.672 57.344-37.888 115.2-37.888 172.544 0 66.56 33.28 128.512 95.232 176.128 33.28 24.064 71.68 43.008 119.296 57.344 52.224 14.336 109.568 18.944 171.52 18.944s123.904-4.608 171.52-18.944c47.616-14.336 85.504-33.28 119.296-57.344 61.952-43.008 95.232-104.96 95.232-176.128-1.024-80.384-24.576-156.672-76.8-223.232z m-44.032 361.984c-62.976 43.52-159.744 68.608-271.36 68.608-116.736 0-197.632-19.968-256-63.488C95.744 673.28 189.44 422.4 322.56 350.72c25.088-13.312 48.64-29.184 72.704-38.912 9.728-4.608 14.336-14.336 14.336-24.064 0-9.728-4.608-19.456-14.336-24.064-29.184-14.336-48.64-38.912-48.64-62.976 0-24.064 14.336-43.52 43.52-62.976 33.792-19.456 72.704-29.184 116.736-29.184 43.52 0 87.552 9.728 116.736 29.184 29.184 19.456 43.52 38.912 43.52 62.976 0 24.064-19.456 43.52-48.64 62.976-9.728 4.608-14.336 14.336-14.336 24.064 0 9.728 4.608 19.456 14.336 24.064 111.616 43.52 231.936 154.624 231.936 314.88 0 53.248-24.064 109.056-72.704 143.36z" fill="#2E77ED" p-id="17430"></path><path d="M615.424 557.568c11.264 0 18.944-7.68 18.944-18.944s-7.68-18.944-18.944-18.944h-52.736l45.056-45.056c7.68-7.68 7.68-22.528 0-30.208s-22.528-7.68-30.208 0L509.952 512 442.368 444.416c-7.68-7.68-22.528-7.68-30.208 0s-7.68 22.528 0 30.208l49.152 49.152H408.576c-11.264 0-18.944 7.68-18.944 18.944s7.68 18.944 18.944 18.944H491.52v41.472H408.576c-11.264 0-18.944 7.68-18.944 18.944s11.264 22.528 22.528 22.528h82.944v60.416c0 11.264 7.68 18.944 18.944 18.944s18.944-7.68 18.944-18.944v-67.584h82.944c11.264 0 18.944-7.68 18.944-18.944s-7.68-18.944-18.944-18.944H532.48V558.08h82.944z" fill="#FFBB12" p-id="17431"></path></svg>